<svg xmlns="http://www.w3.org/2000/svg" version="1.1" xmlns:xlink="http://www.w3.org/1999/xlink" xmlns:svgjs="http://svgjs.com/svgjs" width="1440" height="800" preserveAspectRatio="none" viewBox="0 0 1440 800"><g clip-path="url(&quot;#SvgjsClipPath1038&quot;)" fill="none"><rect width="1440" height="800" x="0" y="0" fill="url(#SvgjsLinearGradient1039)"></rect><circle r="133.335" cx="-71.27" cy="-118.96" stroke="#365aa3" stroke-opacity="0.25" stroke-width="2"></circle><circle r="133.335" cx="412.17" cy="409.14" stroke="#365aa3" stroke-opacity="0.25" stroke-width="2"></circle><circle r="139.51" cx="3.38" cy="74.18" stroke="#365aa3" stroke-opacity="0.25" stroke-width="2"></circle><circle r="178.63" cx="1281.23" cy="287.23" stroke="#365aa3" stroke-opacity="0.25" stroke-width="2"></circle><circle r="72.095" cx="1014.72" cy="543.45" stroke="#365aa3" stroke-opacity="0.25" stroke-width="2"></circle><circle r="252.905" cx="647.62" cy="181.89" stroke="#365aa3" stroke-opacity="0.25" stroke-width="2"></circle><circle r="165.97" cx="1371.54" cy="144.68" stroke="#365aa3" stroke-opacity="0.25" stroke-width="2"></circle><circle r="244.505" cx="1345.38" cy="452.49" stroke="#365aa3" stroke-opacity="0.25" stroke-width="2"></circle><circle r="211.635" cx="1022.56" cy="180.24" stroke="#365aa3" stroke-opacity="0.25" stroke-width="2"></circle><circle r="241.98" cx="91.33" cy="135.84" stroke="#365aa3" stroke-opacity="0.25" stroke-width="2"></circle><circle r="136.55" cx="1275.45" cy="52.68" stroke="#365aa3" stroke-opacity="0.25" stroke-width="2"></circle><circle r="119.115" cx="471.81" cy="121.26" stroke="#365aa3" stroke-opacity="0.25" stroke-width="2"></circle><circle r="87.815" cx="296.68" cy="300.51" stroke="#365aa3" stroke-opacity="0.25" stroke-width="2"></circle><circle r="251" cx="1439.02" cy="275.85" stroke="#365aa3" stroke-opacity="0.25" stroke-width="2"></circle><circle r="74.305" cx="1015.65" cy="225.13" stroke="#365aa3" stroke-opacity="0.25" stroke-width="2"></circle><circle r="189.67" cx="701.07" cy="517.82" stroke="#365aa3" stroke-opacity="0.25" stroke-width="2"></circle><circle r="173.605" cx="326.27" cy="700.78" stroke="#365aa3" stroke-opacity="0.25" stroke-width="2"></circle><circle r="187.245" cx="257.6" cy="691.95" stroke="#365aa3" stroke-opacity="0.25" stroke-width="2"></circle><circle r="113.89" cx="1046.17" cy="610.86" stroke="#365aa3" stroke-opacity="0.25" stroke-width="2"></circle><circle r="118.705" cx="605.23" cy="228.59" stroke="#365aa3" stroke-opacity="0.25" stroke-width="2"></circle><circle r="219.06" cx="995.42" cy="31.97" stroke="#365aa3" stroke-opacity="0.25" stroke-width="2"></circle><circle r="160.315" cx="249.18" cy="688.7" stroke="#365aa3" stroke-opacity="0.25" stroke-width="2"></circle><circle r="240.205" cx="463.54" cy="129.51" stroke="#365aa3" stroke-opacity="0.25" stroke-width="2"></circle><circle r="136.51" cx="603.86" cy="355.85" stroke="#365aa3" stroke-opacity="0.25" stroke-width="2"></circle><circle r="118.96" cx="147.62" cy="561.84" stroke="#365aa3" stroke-opacity="0.25" stroke-width="2"></circle><circle r="118.24" cx="1406.7" cy="736.95" stroke="#365aa3" stroke-opacity="0.25" stroke-width="2"></circle><circle r="209.135" cx="1064.77" cy="717.97" stroke="#365aa3" stroke-opacity="0.25" stroke-width="2"></circle><circle r="204.975" cx="1088.95" cy="529.99" stroke="#365aa3" stroke-opacity="0.25" stroke-width="2"></circle><circle r="84.875" cx="889.46" cy="239.42" stroke="#365aa3" stroke-opacity="0.25" stroke-width="2"></circle><circle r="248.05" cx="415.29" cy="477.2" stroke="#365aa3" stroke-opacity="0.25" stroke-width="2"></circle></g><defs><clipPath id="SvgjsClipPath1038"><rect width="1440" height="800" x="0" y="0"></rect></clipPath><linearGradient x1="11.11%" y1="-20%" x2="88.89%" y2="120%" gradientUnits="userSpaceOnUse" id="SvgjsLinearGradient1039"><stop stop-color="#0e2a47" offset="0"></stop><stop stop-color="#00459e" offset="1"></stop></linearGradient></defs></svg>